<mxfile host="app.diagrams.net" modified="2023-08-04T07:24:26.580Z" agent="Mozilla/5.0 (Windows NT 10.0; Win64; x64) AppleWebKit/537.36 (KHTML, like Gecko) Chrome/115.0.0.0 Safari/537.36" etag="Qy3HoIrIKbVJqqmSW8_w" version="21.2.1" type="github">
  <diagram name="Page-1" id="hVoxCDPz-ZyYI2KS5SWb">
    <mxGraphModel dx="724" dy="390" grid="1" gridSize="10" guides="1" tooltips="1" connect="1" arrows="1" fold="1" page="1" pageScale="1" pageWidth="850" pageHeight="1100" background="none" math="0" shadow="0">
      <root>
        <mxCell id="0" />
        <mxCell id="1" parent="0" />
        <mxCell id="YXWjeA23zhTtA7DLvyyX-3" value="├───public&#xa;└───src&#xa;    ├───context&#xa;    ├───data&#xa;    │   └───cabins&#xa;    ├───features&#xa;    │   ├───authentication&#xa;    │   ├───bookings&#xa;    │   ├───cabins&#xa;    │   ├───check-in-out&#xa;    │   ├───dashboard&#xa;    │   ├───guests&#xa;    │   └───settings&#xa;    ├───hooks&#xa;    ├───pages&#xa;    ├───services&#xa;    ├───styles&#xa;    ├───ui&#xa;    └───utils" style="text;whiteSpace=wrap;html=1;" vertex="1" parent="1">
          <mxGeometry x="60" y="120" width="170" height="300" as="geometry" />
        </mxCell>
        <mxCell id="YXWjeA23zhTtA7DLvyyX-4" value="│   .eslintrc.json&#xa;│   index.html&#xa;│   netlify.toml&#xa;│   package-lock.json&#xa;│   package.json&#xa;│   vite.config.js&#xa;│   &#xa;├───public&#xa;│       default-user.jpg&#xa;│       logo-dark.png&#xa;│       logo-light.png&#xa;│       vite.svg&#xa;│&#xa;└───src&#xa;    │   App.jsx&#xa;    │   main.jsx&#xa;    │&#xa;    ├───context&#xa;    │       DarkModeContext.jsx&#xa;    │&#xa;    ├───data&#xa;    │   │   data-bookings.js&#xa;    │   │   data-cabins.js&#xa;    │   │   data-guests.js&#xa;    │   │   Uploader.jsx&#xa;    │   │&#xa;    │   └───cabins&#xa;    │           cabin-001.jpg&#xa;    │           cabin-002.jpg&#xa;    │           cabin-003.jpg&#xa;    │           cabin-004.jpg&#xa;    │           cabin-005.jpg&#xa;    │           cabin-006.jpg&#xa;    │           cabin-007.jpg&#xa;    │           cabin-008.jpg&#xa;    │&#xa;    ├───features&#xa;    │   ├───authentication&#xa;    │   │       LoginForm.jsx&#xa;    │   │       Logout.jsx&#xa;    │   │       SignupForm.jsx&#xa;    │   │       UpdatePasswordForm.jsx&#xa;    │   │       UpdateUserDataForm.jsx&#xa;    │   │       useLogin.js&#xa;    │   │       useLogout.js&#xa;    │   │       UserAvatar.jsx&#xa;    │   │       useSignup.js&#xa;    │   │       useUpdateUser.js&#xa;    │   │       useUser.js&#xa;    │   │       &#xa;    │   ├───bookings&#xa;    │   │       BookingDataBox.jsx&#xa;    │   │       BookingDetail.jsx&#xa;    │   │       BookingRow.jsx&#xa;    │   │       BookingTable.jsx&#xa;    │   │       BookingTableOperations.jsx&#xa;    │   │       useBooking.js&#xa;    │   │       useBookings.js&#xa;    │   │       useDeleteBooking.js&#xa;    │   │&#xa;    │   ├───cabins&#xa;    │   │       AddCabin.jsx&#xa;    │   │       CabinRow-v1.jsx&#xa;    │   │       CabinRow.jsx&#xa;    │   │       CabinTable-v1.jsx&#xa;    │   │       CabinTable-v2.jsx&#xa;    │   │       CabinTable.jsx&#xa;    │   │       CabinTableOperations.jsx&#xa;    │   │       CreateCabinForm-v1.jsx&#xa;    │   │       CreateCabinForm.jsx&#xa;    │   │       useCabins.js&#xa;    │   │       useCreateCabin.js&#xa;    │   │       useDeleteCabin.js&#xa;    │   │       useEditCabin.js&#xa;    │   │&#xa;    │   ├───check-in-out&#xa;    │   │       CheckinBooking.jsx&#xa;    │   │       CheckoutButton.jsx&#xa;    │   │       TodayActivity.jsx&#xa;    │   │       TodayItem.jsx&#xa;    │   │       useCheckin.js&#xa;    │   │       useCheckout.js&#xa;    │   │       useTodayActivity.js&#xa;    │   │&#xa;    │   ├───dashboard&#xa;    │   │       DashboardBox.jsx&#xa;    │   │       DashboardFilter.jsx&#xa;    │   │       DashboardLayout.jsx&#xa;    │   │       DurationChart.jsx&#xa;    │   │       SalesChart.jsx&#xa;    │   │       Stat.jsx&#xa;    │   │       Stats.jsx&#xa;    │   │       useRecentBookings.js&#xa;    │   │       useRecentStays.js&#xa;    │   │&#xa;    │   ├───guests&#xa;    │   │       CreateGuestForm.jsx&#xa;    │   │       GuestList.jsx&#xa;    │   │       GuestListItem.jsx&#xa;    │   │&#xa;    │   └───settings&#xa;    │           UpdateSettingsForm.jsx&#xa;    │           useSettings.js&#xa;    │           useUpdateSetting.js&#xa;    │&#xa;    ├───hooks&#xa;    │       useLocalStorageState.js&#xa;    │       useMoveBack.js&#xa;    │       useOutsideClick.js&#xa;    │&#xa;    ├───pages&#xa;    │       Account.jsx&#xa;    │       Booking.jsx&#xa;    │       Bookings.jsx&#xa;    │       Cabins.jsx&#xa;    │       Checkin.jsx&#xa;    │       Dashboard.jsx&#xa;    │       Login.jsx&#xa;    │       PageNotFound.jsx&#xa;    │       Settings.jsx&#xa;    │       Users.jsx&#xa;    │&#xa;    ├───services&#xa;    │       apiAuth.js&#xa;    │       apiBookings.js&#xa;    │       apiCabins.js&#xa;    │       apiSettings.js&#xa;    │       supabase.js&#xa;    │&#xa;    ├───styles&#xa;    │       GlobalStyles.js&#xa;    │&#xa;    ├───ui&#xa;    │       AppLayout.jsx&#xa;    │       Button.jsx&#xa;    │       ButtonGroup.jsx&#xa;    │       ButtonIcon.jsx&#xa;    │       ButtonText.jsx&#xa;    │       Checkbox.jsx&#xa;    │       ConfirmDelete.jsx&#xa;    │       DarkModeToggle.jsx&#xa;    │       DataItem.jsx&#xa;    │       Empty.jsx&#xa;    │       ErrorFallback.jsx&#xa;    │       FileInput.jsx&#xa;    │       Filter.jsx&#xa;    │       Flag.jsx&#xa;    │       Form.jsx&#xa;    │       FormRow.jsx&#xa;    │       FormRowVertical.jsx&#xa;    │       Header.jsx&#xa;    │       HeaderMenu.jsx&#xa;    │       Heading.jsx&#xa;    │       Input.jsx&#xa;    │       Logo.jsx&#xa;    │       MainNav.jsx&#xa;    │       Menus.jsx&#xa;    │       Modal-v1.jsx&#xa;    │       Modal.jsx&#xa;    │       Pagination.jsx&#xa;    │       ProtectedRoute.jsx&#xa;    │       Row.jsx&#xa;    │       Select.jsx&#xa;    │       Sidebar.jsx&#xa;    │       SortBy.jsx&#xa;    │       Spinner.jsx&#xa;    │       SpinnerMini.jsx&#xa;    │       Table.jsx&#xa;    │       TableOperations.jsx&#xa;    │       Tag.jsx&#xa;    │       Textarea.jsx&#xa;    │&#xa;    └───utils&#xa;            constants.js&#xa;            helpers.js" style="text;whiteSpace=wrap;html=1;" vertex="1" parent="1">
          <mxGeometry x="340" y="120" width="240" height="2540" as="geometry" />
        </mxCell>
      </root>
    </mxGraphModel>
  </diagram>
</mxfile>
